<svg viewBox="0 0 1024 1024" xmlns="http://www.w3.org/2000/svg" width="16" height="16"><path d="M832 64H192c-70.4 0-128 57.6-128 128v512c0 70.4 57.6 128 128 128h128l132.096 120.448c6.976 5.184 14.784 7.552 22.336 7.552C493.824 960 512 944.704 512 922.496V832h320c70.4 0 128-57.6 128-128V192c0-70.4-57.6-128-128-128zm64 640c0 35.328-28.672 64-64 64H512c-16.96 0-33.28 6.72-45.248 18.752S448 815.04 448 832v30.08l-84.864-77.376C351.296 773.952 335.936 768 320 768H192c-35.328 0-64-28.672-64-64V192c0-35.328 28.672-64 64-64h640c35.328 0 64 28.672 64 64v512zM736 320H288c-17.664 0-32 14.336-32 32s14.336 32 32 32h448c17.664 0 32-14.336 32-32s-14.336-32-32-32zm0 192H288c-17.664 0-32 14.336-32 32s14.336 32 32 32h448c17.664 0 32-14.336 32-32s-14.336-32-32-32z" fill="#515151"/></svg>